<?xml version="1.0" encoding="utf-8"?>
<!-- Generator: Adobe Illustrator 16.0.0, SVG Export Plug-In . SVG Version: 6.00 Build 0)  -->
<!DOCTYPE svg PUBLIC "-//W3C//DTD SVG 1.1//EN" "http://www.w3.org/Graphics/SVG/1.1/DTD/svg11.dtd">
<svg version="1.1" id="ico_search" xmlns="http://www.w3.org/2000/svg" xmlns:xlink="http://www.w3.org/1999/xlink" x="0px" y="0px"
	 width="30px" height="30px" viewBox="-0.666 -0.75 30 30" enable-background="new -0.666 -0.75 30 30" xml:space="preserve">
<path fill="#03CF5D" d="M2351.165,1694.557h9l-4.5,4L2351.165,1694.557z"/>
<path fill="#C4C4C4" d="M2133.189,912.219h9l-4.5,4L2133.189,912.219z"/>
<path fill="#C4C4C4" d="M2249.744,899.359h9l-4.5-4L2249.744,899.359z"/>
<path fill="#03CF5D" d="M1971.284,663.76h9l-4.5-4L1971.284,663.76z"/>
<path fill="#B4B4B4" d="M1590.824,426.16h14v7h-15v-7H1590.824z M1602.824,432.16h1v-1h-1V432.16z M1602.824,430.16h1v-1h-1V430.16z
	 M1602.824,428.16h1v-1h-1V428.16z M1595.824,427.16h-1v1h1V427.16z M1595.824,429.16h-1v1h1V429.16z M1597.824,427.16h-1v1h1
	V427.16z M1597.824,429.16h-1v1h1V429.16z M1599.824,427.16h-1v1h1V427.16z M1599.824,429.16h-1v1h1V429.16z M1601.824,427.16h-1v1
	h1V427.16z M1601.824,429.16h-1v1h1V429.16z M1592.824,432.16h9v-1h-9V432.16z M1592.824,430.16h1v-1h-1V430.16z M1592.824,428.16h1
	v-1h-1V428.16z M1590.824,432.16h1v-1h-1V432.16z M1590.824,430.16h1v-1h-1V430.16z M1590.824,428.16h1v-1h-1V428.16z
	 M1605.824,435.16h-18v-11h19v11H1605.824z M1605.824,425.16h-17v9h17V425.16z"/>
<path fill="#03CF5D" d="M1234.364,197.561h14v7h-15v-7H1234.364z M1246.364,203.561h1v-1h-1V203.561z M1246.364,201.561h1v-1h-1
	V201.561z M1246.364,199.561h1v-1h-1V199.561z M1239.364,198.561h-1v1h1V198.561z M1239.364,200.561h-1v1h1V200.561z
	 M1241.364,198.561h-1v1h1V198.561z M1241.364,200.561h-1v1h1V200.561z M1243.364,198.561h-1v1h1V198.561z M1243.364,200.561h-1v1h1
	V200.561z M1245.364,198.561h-1v1h1V198.561z M1245.364,200.561h-1v1h1V200.561z M1236.364,203.561h9v-1h-9V203.561z
	 M1236.364,201.561h1v-1h-1V201.561z M1236.364,199.561h1v-1h-1V199.561z M1234.364,203.561h1v-1h-1V203.561z M1234.364,201.561h1
	v-1h-1V201.561z M1234.364,199.561h1v-1h-1V199.561z M1249.364,206.561h-18v-11h19v11H1249.364z M1249.364,196.561h-17v9h17V196.561
	z"/>
<g>
	<path fill="#03CF5D" d="M27.046-0.75H1.622c-1.263,0-2.288,1.024-2.288,2.288v25.424c0,1.264,1.025,2.288,2.288,2.288h25.424
		c1.264,0,2.288-1.024,2.288-2.288V1.538C29.334,0.274,28.31-0.75,27.046-0.75z M22.499,22.261h-5.413l-5.053-7.82v7.82H6.499V6.622
		h5.414l5.053,7.759V6.622h5.533V22.261z"/>
</g>
<path fill="#FFFFFF" d="M420.945-284.14c-2.301,0-4.601,0.8-6.301,2.3c-1,0.9-1.8,1.9-2.4,3.2c-0.5,1.1-0.799,2.4-0.799,3.7v0.3
	c0,1.2,0.199,2.3,0.6,3.4c0.5,1.2,1.199,2.3,2.1,3.3c1,1,2.301,1.8,3.6,2.3c0.601,0.2,1.201-0.2,1.4-0.8c0.1-0.5-0.199-1-0.699-1.2
	c-1.301-0.4-2.4-1.2-3.301-2.3c-1.1-1.3-1.699-3-1.699-4.8c0-1.7,0.6-3.4,1.699-4.7c1.4-1.7,3.5-2.6,5.6-2.6
	c1.101,0,2.301,0.3,3.301,0.8c1.1,0.5,2,1.3,2.699,2.3c0.701,1,1.101,2.1,1.301,3.3c0.3,2.3-0.5,4.6-2.1,6.3c-0.4,0.4-0.4,1,0,1.3
	l4.6,4.6c0.199,0.2,0.5,0.3,0.699,0.3c0.301,0,0.5-0.1,0.701-0.3c0.399-0.4,0.399-1.1,0-1.5l-3.801-3.8l0.1-0.1
	c1.301-1.7,1.9-3.7,1.9-5.8c0-1.3-0.3-2.6-0.8-3.8c-0.5-1.2-1.3-2.3-2.3-3.2C425.545-283.24,423.244-284.14,420.945-284.14z
	 M420.445-266.64c0,0.8,0.699,1.5,1.5,1.5c0.799,0,1.5-0.7,1.5-1.5s-0.701-1.5-1.5-1.5
	C421.145-268.14,420.445-267.44,420.445-266.64"/>
</svg>
